<?xml version="1.0" encoding="utf-8" ?>
<svg xmlns="http://www.w3.org/2000/svg" width="1024" height="1024" viewBox="0 0 1024 1024">
<rect width="1024" height="1024" fill="#F2EFDC"/>
<path fill="#BFCEA4" d="M479.182 101.000L538.938 135.500L538.938 204.500L479.182 239.000L419.426 204.500L419.426 135.500Z"/>
<path fill="#BFCEA4" d="M610.818 101.000L670.574 135.500L670.574 204.500L610.818 239.000L551.062 204.500L551.062 135.500Z"/>
<path fill="#BFCEA4" d="M281.728 215.000L341.484 249.500L341.484 318.500L281.728 353.000L221.973 318.500L221.973 249.500Z"/>
<path fill="#487D48" d="M413.364 215.000L473.120 249.500L473.120 318.500L413.364 353.000L353.608 318.500L353.608 249.500Z"/>
<path fill="#487D48" d="M545.000 215.000L604.756 249.500L604.756 318.500L545.000 353.000L485.244 318.500L485.244 249.500Z"/>
<path fill="#487D48" d="M676.636 215.000L736.392 249.500L736.392 318.500L676.636 353.000L616.880 318.500L616.880 249.500Z"/>
<path fill="#BFCEA4" d="M808.272 215.000L868.027 249.500L868.027 318.500L808.272 353.000L748.516 318.500L748.516 249.500Z"/>
<path fill="#BFCEA4" d="M215.910 329.000L275.666 363.500L275.666 432.500L215.910 467.000L156.155 432.500L156.155 363.500Z"/>
<path fill="#487D48" d="M347.546 329.000L407.302 363.500L407.302 432.500L347.546 467.000L287.790 432.500L287.790 363.500Z"/>
<path fill="#D36D48" d="M742.454 329.000L802.210 363.500L802.210 432.500L742.454 467.000L682.698 432.500L682.698 363.500Z"/>
<path fill="#BFCEA4" d="M150.092 443.000L209.848 477.500L209.848 546.500L150.092 581.000L90.337 546.500L90.337 477.500Z"/>
<path fill="#487D48" d="M281.728 443.000L341.484 477.500L341.484 546.500L281.728 581.000L221.973 546.500L221.973 477.500Z"/>
<path fill="#BFCEA4" d="M215.910 557.000L275.666 591.500L275.666 660.500L215.910 695.000L156.155 660.500L156.155 591.500Z"/>
<path fill="#D36D48" d="M347.546 557.000L407.302 591.500L407.302 660.500L347.546 695.000L287.790 660.500L287.790 591.500Z"/>
<path fill="#D36D48" d="M742.454 557.000L802.210 591.500L802.210 660.500L742.454 695.000L682.698 660.500L682.698 591.500Z"/>
<path fill="#BFCEA4" d="M874.090 557.000L933.845 591.500L933.845 660.500L874.090 695.000L814.334 660.500L814.334 591.500Z"/>
<path fill="#BFCEA4" d="M281.728 671.000L341.484 705.500L341.484 774.500L281.728 809.000L221.973 774.500L221.973 705.500Z"/>
<path fill="#D36D48" d="M413.364 671.000L473.120 705.500L473.120 774.500L413.364 809.000L353.608 774.500L353.608 705.500Z"/>
<path fill="#D36D48" d="M545.000 671.000L604.756 705.500L604.756 774.500L545.000 809.000L485.244 774.500L485.244 705.500Z"/>
<path fill="#D36D48" d="M676.636 671.000L736.392 705.500L736.392 774.500L676.636 809.000L616.880 774.500L616.880 705.500Z"/>
<path fill="#BFCEA4" d="M808.272 671.000L868.027 705.500L868.027 774.500L808.272 809.000L748.516 774.500L748.516 705.500Z"/>
<path fill="#BFCEA4" d="M479.182 785.000L538.938 819.500L538.938 888.500L479.182 923.000L419.426 888.500L419.426 819.500Z"/>
<path fill="#BFCEA4" d="M610.818 785.000L670.574 819.500L670.574 888.500L610.818 923.000L551.062 888.500L551.062 819.500Z"/>
</svg>